#!OML:ASF H:\GeneralSubjects\Female5\Project 1\Capture day 1\Session 1\Female5.ASF
:FULLY-SPECIFIED
:DEGREES
479
root 23.6795 15.6193 8.121 -11.1012 94.213 -23.5646
lowerback 8.31567 0.492005 -1.20951
upperback -7.19305 0.705272 0.774443
thorax -12.5218 0.538225 1.37953
lowerneck -8.92068 -2.59203 -0.40288
upperneck 44.7487 1.53697 -4.72702
head 18.3984 0.974654 -1.57597
rclavicle -4.6528e-015 5.96354e-015
rhumerus -56.0001 15.9395 -81.9489
rradius 38.19
rwrist -7.14601
rhand -21.8463 -20.1861
rfingers 7.12502
rthumb 4.55716 -50.1171
lclavicle -4.6528e-015 5.96354e-015
lhumerus -39.477 2.89857 72.7116
lradius 34.0798
lwrist -14.4004
lhand -26.0261 32.7666
lfingers 7.12502
lthumb 0.520546 62.7457
rfemur -28.7002 29.98 11.3339
rtibia -4.84768
rfoot -13.5521 -27.1978
rtoes -15.9895
lfemur 7.85002 -20.6289 -36.0156
ltibia 4.67178
lfoot -3.32591 -8.34555
ltoes -15.1614
480
root 23.8609 15.5759 8.1576 -10.4953 95.3587 -23.248
lowerback 8.26906 0.40479 -1.3204
upperback -7.21263 0.583357 0.852172
thorax -12.5139 0.495752 1.54997
lowerneck -8.67958 -2.72275 -0.581936
upperneck 44.9562 1.66034 -5.08674
head 18.4826 0.982207 -1.69014
rclavicle -9.54166e-015 7.95139e-015
rhumerus -56.2258 16.1668 -81.7798
rradius 38.0963
rwrist -7.19758
rhand -21.8412 -20.4229
rfingers 7.12502
rthumb 4.56214 -50.3538
lclavicle -9.54166e-015 7.95139e-015
lhumerus -39.2538 2.42281 73.5675
lradius 34.9504
lwrist -13.508
lhand -26.1647 32.7544
lfingers 7.12502
lthumb 0.38665 62.7338
rfemur -28.4695 29.8214 10.6999
rtibia -4.69798
rfoot -15.2168 -27.5597
rtoes -12.9963
lfemur 8.13442 -20.8565 -36.2455
ltibia 4.90159
lfoot -2.76824 -8.27979
ltoes -14.8691
481
root 24.0462 15.5363 8.19611 -9.68403 96.4052 -22.6953
lowerback 8.28763 0.324386 -1.39861
upperback -7.24826 0.4777 0.954101
thorax -12.5648 0.460309 1.72527
lowerneck -8.5125 -2.82797 -0.698598
upperneck 45.1604 1.79991 -5.44305
head 18.5874 1.00519 -1.8137
rclavicle 8.07563e-016 4.77083e-014
rhumerus -56.259 16.3088 -81.5174
rradius 37.9062
rwrist -7.32601
rhand -21.9332 -20.6791
rfingers 7.12502
rthumb 4.47331 -50.6119
lclavicle 8.07563e-016 4.77083e-014
lhumerus -39.1265 2.00299 74.4603
lradius 35.7675
lwrist -12.68
lhand -26.2424 32.7936
lfingers 7.12502
lthumb 0.311609 62.7731
rfemur -28.2458 29.7807 10.1713
rtibia -4.34982
rfoot -17.1286 -28.1395
rtoes -8.45738
lfemur 8.51985 -21.1895 -36.4465
ltibia 5.0957
lfoot -2.47735 -8.25283
ltoes -14.6647
482
root 24.2349 15.5061 8.23814 -8.47309 97.2916 -21.7525
lowerback 8.33406 0.259467 -1.43284
upperback -7.3013 0.403286 1.08654
thorax -12.6539 0.438628 1.90361
lowerneck -8.43605 -2.89978 -0.766151
upperneck 45.3662 1.94833 -5.74589
head 18.7196 1.04319 -1.92199
rclavicle -7.15625e-015 -2.06736e-014
rhumerus -56.0672 16.3597 -81.1805
rradius 37.6097
rwrist -7.52873
rhand -22.062 -21.0075
rfingers 7.12502
rthumb 4.34888 -50.9429
lclavicle -7.15625e-015 -2.06736e-014
lhumerus -39.1126 1.67997 75.3546
lradius 36.5491
lwrist -11.9603
lhand -26.234 32.9447
lfingers 7.12502
lthumb 0.319734 62.9242
rfemur -28.1562 29.9134 9.75791
rtibia -3.8219
rfoot -19.0392 -28.7077
rtoes -2.60365
lfemur 8.93942 -21.5958 -36.5348
ltibia 5.26041
lfoot -2.47023 -8.22475
ltoes -14.5802
483
root 24.4256 15.4911 8.28325 -6.51765 97.9853 -20.1021
lowerback 8.38219 0.205374 -1.38086
upperback -7.3732 0.363754 1.27331
thorax -12.7671 0.430239 2.08675
lowerneck -8.43641 -2.93245 -0.814361
upperneck 45.5643 2.10857 -5.97106
head 18.8689 1.0942 -1.99673
rclavicle -2.27608e-014 -3.18055e-015
rhumerus -55.6318 16.3493 -80.781
rradius 37.2135
rwrist -7.79184
rhand -22.1923 -21.4281
rfingers 7.12502
rthumb 4.22312 -51.366
lclavicle -2.27608e-014 -3.18055e-015
lhumerus -39.2363 1.51508 76.2283
lradius 37.2873
lwrist -11.4216
lhand -26.1842 33.1209
lfingers 7.12502
lthumb 0.367804 63.1004
rfemur -28.7296 30.2572 9.45582
rtibia -2.62684
rfoot -18.4369 -30.5169
rtoes -3.11472
lfemur 9.3183 -22.0117 -36.4107
ltibia 5.41797
lfoot -2.72852 -8.13876
ltoes -14.5786
484
root 24.6172 15.4946 8.33152 -3.77849 98.4974 -17.7119
lowerback 8.39654 0.167214 -1.22289
upperback -7.45143 0.368151 1.50164
thorax -12.8685 0.436295 2.24765
lowerneck -8.48917 -2.93888 -0.844926
upperneck 45.7445 2.25195 -6.10643
head 19.0193 1.14742 -2.03541
rclavicle -1.87106e-014 -7.15625e-015
rhumerus -54.9633 16.2681 -80.3637
rradius 36.7598
rwrist -8.1358
rhand -22.3325 -21.9136
rfingers 7.12502
rthumb 4.08774 -51.8541
lclavicle -1.87106e-014 -7.15625e-015
lhumerus -39.475 1.48267 77.0636
lradius 37.9635
lwrist -11.0846
lhand -26.0993 33.227
lfingers 7.12502
lthumb 0.449873 63.2063
rfemur -29.4884 30.8028 9.31608
rtibia -1.28002
rfoot -17.4202 -32.1792
rtoes -4.09766
lfemur 9.58729 -22.3387 -36.0131
ltibia 5.59534
lfoot -3.19155 -7.90738
ltoes -14.5439
485
root 24.8085 15.5171 8.3819 -0.821894 98.8718 -15.144
lowerback 8.37281 0.144185 -1.05187
upperback -7.52842 0.399332 1.75189
thorax -12.9469 0.45549 2.42029
lowerneck -8.57414 -2.92602 -0.874519
upperneck 45.902 2.38377 -6.17768
head 19.1624 1.19941 -2.04551
rclavicle 2.99668e-014 9.54166e-015
rhumerus -54.1212 16.2109 -80.0021
rradius 36.3342
rwrist -8.63936
rhand -22.5104 -22.4046
rfingers 7.12502
rthumb 3.91587 -52.3484
lclavicle 2.99668e-014 9.54166e-015
lhumerus -39.7956 1.56536 77.8687
lradius 38.5292
lwrist -10.9288
lhand -25.9699 33.1639
lfingers 7.12502
lthumb 0.574791 63.1428
rfemur -30.2881 31.5237 9.25894
rtibia 0.0389964
rfoot -16.5712 -33.4753
rtoes -4.83922
lfemur 9.69429 -22.5135 -35.4182
ltibia 5.83713
lfoot -3.79305 -7.47385
ltoes -14.314
486
root 24.9991 15.5566 8.43314 1.63183 99.1576 -13.109
lowerback 8.31341 0.134943 -0.98906
upperback -7.60252 0.433001 1.99083
thorax -13.0015 0.485174 2.64121
lowerneck -8.65807 -2.89912 -0.912027
upperneck 46.0345 2.51352 -6.21256
head 19.2883 1.25066 -2.03625
rclavicle 3.60794e-014 3.57812e-014
rhumerus -53.1998 16.2707 -79.768
rradius 36.0362
rwrist -9.31044
rhand -22.7673 -22.8194
rfingers 7.12502
rthumb 3.66786 -52.7676
lclavicle 3.60794e-014 3.57812e-014
lhumerus -40.1499 1.71573 78.6545
lradius 38.9224
lwrist -10.9263
lhand -25.7951 32.8828
lfingers 7.12502
lthumb 0.743649 62.8613
rfemur -30.0196 29.7913 10.9592
rtibia 0.871705
rfoot -14.0926 -32.0756
rtoes -5.16815
lfemur 9.61605 -22.5294 -34.7678
ltibia 6.18693
lfoot -4.49005 -6.82922
ltoes -13.8173
487
root 25.1892 15.6091 8.48444 3.15476 99.4086 -12.0088
lowerback 8.23748 0.132529 -1.10384
upperback -7.6743 0.445169 2.18976
thorax -13.044 0.518524 2.92285
lowerneck -8.72697 -2.86352 -0.936694
upperneck 46.1537 2.65167 -6.25124
head 19.4023 1.30615 -2.02926
rclavicle -2.30093e-014 -2.06736e-014
rhumerus -52.3072 16.51 -79.7196
rradius 35.9679
rwrist -10.1073
rhand -23.0806 -23.1001
rfingers 7.12502
rthumb 3.36523 -53.0533
lclavicle -2.30093e-014 -2.06736e-014
lhumerus -40.4965 1.87206 79.4177
lradius 39.0985
lwrist -11.0625
lhand -25.5687 32.4178
lfingers 7.12502
lthumb 0.962284 62.3954
rfemur -29.6762 28.8701 12.0997
rtibia 1.31043
rfoot -12.9558 -31.0805
rtoes -5.36641
lfemur 9.35097 -22.3494 -34.153
ltibia 6.67813
lfoot -5.18359 -5.92341
ltoes -13.0846
488
root 25.3794 15.6695 8.53506 3.57757 99.6706 -11.9787
lowerback 8.1697 0.132909 -1.40935
upperback -7.74207 0.425202 2.32843
thorax -13.0865 0.550382 3.25263
lowerneck -8.7794 -2.82507 -0.92874
upperneck 46.2675 2.80397 -6.32765
head 19.511 1.36903 -2.04412
rclavicle 6.16232e-015 2.46493e-014
rhumerus -51.5482 16.9801 -79.8939
rradius 36.2191
rwrist -10.9816
rhand -23.4291 -23.1817
rfingers 7.12502
rthumb 3.02871 -53.1399
lclavicle 6.16232e-015 2.46493e-014
lhumerus -40.7948 1.98797 80.1382
lradius 39.0132
lwrist -11.3569
lhand -25.3065 31.7935
lfingers 7.12502
lthumb 1.21553 61.7698
rfemur -29.1077 28.5193 12.7696
rtibia 1.28912
rfoot -12.7671 -30.5382
rtoes -5.75634
lfemur 8.89879 -21.8817 -33.6073
ltibia 7.39891
lfoot -5.69574 -4.71875
ltoes -12.2038
489
root 25.5698 15.7324 8.58381 3.31431 99.9852 -12.5615
lowerback 8.14104 0.12902 -1.81296
upperback -7.80007 0.377652 2.41852
thorax -13.1407 0.5751 3.59046
lowerneck -8.8109 -2.78645 -0.893572
upperneck 46.366 2.96983 -6.4489
head 19.6067 1.43762 -2.08313
rclavicle 1.28713e-014 3.18055e-015
rhumerus -50.9977 17.7241 -80.2887
rradius 36.8486
rwrist -11.8366
rhand -23.8239 -23.0369
rfingers 7.12502
rthumb 2.64738 -53.0002
lclavicle 1.28713e-014 3.18055e-015
lhumerus -41.0156 2.07644 80.7749
lradius 38.6516
lwrist -11.8627
lhand -25.0157 31.073
lfingers 7.12502
lthumb 1.49644 61.0475
rfemur -28.2491 28.4552 13.1984
rtibia 0.886319
rfoot -13.0734 -30.3214
rtoes -6.74654
lfemur 8.26502 -21.0506 -33.0542
ltibia 8.41041
lfoot -5.90823 -3.18268
ltoes -11.313
490
root 25.7616 15.7934 8.63157 2.83119 100.38 -13.273
lowerback 8.15339 0.118297 -2.23366
upperback -7.84487 0.312265 2.47571
thorax -13.2029 0.590732 3.90593
lowerneck -8.82475 -2.7495 -0.839156
upperneck 46.4363 3.14165 -6.60758
head 19.6806 1.50793 -2.14219
rclavicle 1.14798e-014 -7.15625e-015
rhumerus -50.673 18.7157 -80.8556
rradius 37.858
rwrist -12.5251
rhand -24.2011 -22.7341
rfingers 7.12502
rthumb 2.28311 -52.7016
lclavicle 1.14798e-014 -7.15625e-015
lhumerus -41.1573 2.17836 81.2673
lradius 38.0551
lwrist -12.6057
lhand -24.7183 30.3494
lfingers 7.12502
lthumb 1.7836 60.3217
rfemur -27.1451 28.5018 13.5644
rtibia 0.259035
rfoot -13.593 -30.294
rtoes -8.26266
lfemur 7.41718 -19.7827 -32.3815
ltibia 9.78527
lfoot -5.73187 -1.29618
ltoes -10.5297
491
root 25.9546 15.8495 8.67777 2.64953 100.865 -13.5778
lowerback 8.21121 0.094453 -2.55951
upperback -7.87394 0.240075 2.52872
thorax -13.2726 0.593822 4.16515
lowerneck -8.81303 -2.71134 -0.795084
upperneck 46.465 3.31877 -6.78255
head 19.7199 1.57663 -2.20476
rclavicle -7.15625e-015 4.21423e-014
rhumerus -50.5287 19.9016 -81.5051
rradius 39.1734
rwrist -12.9075
rhand -24.4944 -22.3399
rfingers 7.12502
rthumb 1.99988 -52.3103
lclavicle -7.15625e-015 4.21423e-014
lhumerus -41.2449 2.3757 81.5548
lradius 37.3002
lwrist -13.5543
lhand -24.4767 29.6726
lfingers 7.12502
lthumb 2.01695 59.6428
rfemur -25.8377 28.4954 14.0649
rtibia -0.451814
rfoot -14.1174 -30.2872
rtoes -10.0241
lfemur 6.35351 -18.1374 -31.5087
ltibia 11.606
lfoot -5.20939 0.872269
ltoes -10.0065
